<?xml version="1.0" encoding="UTF-8" standalone="no"?>
<svg xmlns="http://www.w3.org/2000/svg" width="150" height="150" version="1.0">
  <path fill="#d4d4d4" d="M0 0v150h150V0H0z"/>
  <path fill="#fff" d="M77.155976 92.982712H65.373132c-.08228-.287859-.462695-1.336591-1.141276-3.146205-.678603-1.809551-1.017904-3.392939-1.017883-4.750155-.000021-2.590954.359842-5.079128 1.07958-7.464524.719695-2.385322 1.778713-4.616454 3.177053-6.693407 1.398287-2.076848 4.164066-5.397847 8.297337-9.962985 4.133218-4.565012 6.199843-8.328123 6.199885-11.289321-.000042-5.757689-3.763142-8.636565-11.289331-8.636649-3.660311.000084-7.485107 1.830229-11.474401 5.490445L52.85 34.623674c5.305354-4.153728 12.276345-6.230628 20.913015-6.230723 6.662517.000095 12.224923 1.850801 16.68723 5.552131 4.462212 3.701497 6.693344 8.61616 6.693397 14.743988-.000053 4.19501-.812304 7.742192-2.436764 10.641577-1.624566 2.899501-4.482879 6.302748-8.574963 10.209741-4.092157 3.907108-6.755115 7.156124-7.988894 9.747077-1.233833 2.591028-1.850739 5.428779-1.850707 8.513255-.000032.658062.287859 2.385396.863662 5.181992zm-5.243668 8.389878c2.796596.00003 5.171674.98707 7.125223 2.96114 1.953496 1.9741 2.930255 4.35946 2.930297 7.15607-.000042 2.79664-.976801 5.18199-2.930297 7.15608-1.953549 1.97409-4.328627 2.96114-7.125223 2.96114-2.796659 0-5.182012-.98705-7.156081-2.96114-1.974111-1.97409-2.961146-4.35944-2.961135-7.15608-.000011-2.79661.987024-5.18197 2.961135-7.15607 1.974069-1.97407 4.359422-2.96111 7.156081-2.96114z" font-family="Trebuchet MS" font-size="12" font-weight="700" style="text-align:start;line-height:125%"/>
</svg>